# xmcd
#
# Track frame offsets: 
#        150
#        16457
#        32122
#        46995
#        63005
#        77865
#        96207
#        110915
#        127467
#        142185
#        160282
#        175307
#        190095
#        207755
#        225052
#        243652
#        266310
#        286060
#        300450
#        314427
#
# Disc length: 4343 seconds
#
# Revision: 0
# Processed by: cddbd v1.5.2PL0 Copyright (c) Steve Scherf et al.
# Submitted via: ExactAudioCopy v1.0b3
#
DISCID=1910f514
DTITLE=ロス・インディオス - Para siempre Con Los Indios ～ロス・インディオス45周年記念ベスト～ Di
DTITLE=sc 1 UPCY-6472-3
DYEAR=1900
DGENRE=JPop
TTITLE0=コモエスタ赤坂
TTITLE1=知りすぎたのね
TTITLE2=あなたの匂い
TTITLE3=淋しくないかい~夜の銀狐~ 
TTITLE4=涙と雨にぬれて
TTITLE5=マンションの前で
TTITLE6=別れても好きな人 
TTITLE7=それぞれの原宿 
TTITLE8=うそよ今夜も
TTITLE9=恋の青山・原宿・六本木~ゆらり待夢~ 
TTITLE10=最後の楽園 
TTITLE11=今夜だけは 
TTITLE12=男と女のラブゲーム 
TTITLE13=GINZA伝説 
TTITLE14=喧嘩のあとは 
TTITLE15=DESTINY 
TTITLE16=ふるさと忘れな草
TTITLE17=八月の濡れた砂 
TTITLE18=丸木舟(LA PIRAGUA) 
TTITLE19=予感 
EXTD=
EXTT0=
EXTT1=
EXTT2=
EXTT3=
EXTT4=
EXTT5=
EXTT6=
EXTT7=
EXTT8=
EXTT9=
EXTT10=
EXTT11=
EXTT12=
EXTT13=
EXTT14=
EXTT15=
EXTT16=
EXTT17=
EXTT18=
EXTT19=
PLAYORDER=
